# Blender v2.80 (sub 75) OBJ File: ''
# www.blender.org
mtllib outline.mtl
o Cylinder_Cylinder.001
v 0.000000 -1.000000 -1.070000
v 0.000000 1.000000 -1.070000
v 0.208746 -1.000000 -1.049439
v 0.208746 1.000000 -1.049439
v 0.409470 -1.000000 -0.988549
v 0.409470 1.000000 -0.988549
v 0.594459 -1.000000 -0.889671
v 0.594459 1.000000 -0.889671
v 0.756603 -1.000000 -0.756603
v 0.756603 1.000000 -0.756603
v 0.889671 -1.000000 -0.594459
v 0.889671 1.000000 -0.594459
v 0.988549 -1.000000 -0.409470
v 0.988549 1.000000 -0.409470
v 1.049439 -1.000000 -0.208746
v 1.049439 1.000000 -0.208746
v 1.070000 -1.000000 -0.000000
v 1.070000 1.000000 -0.000000
v 1.049439 -1.000000 0.208745
v 1.049439 1.000000 0.208745
v 0.988550 -1.000000 0.409470
v 0.988550 1.000000 0.409470
v 0.889671 -1.000000 0.594459
v 0.889671 1.000000 0.594459
v 0.756603 -1.000000 0.756603
v 0.756603 1.000000 0.756603
v 0.594459 -1.000000 0.889671
v 0.594459 1.000000 0.889671
v 0.409470 -1.000000 0.988550
v 0.409470 1.000000 0.988550
v 0.208745 -1.000000 1.049439
v 0.208745 1.000000 1.049439
v -0.000000 -1.000000 1.069998
v -0.000000 1.000000 1.069998
v -0.208746 -1.000000 1.049439
v -0.208746 1.000000 1.049439
v -0.409471 -1.000000 0.988549
v -0.409471 1.000000 0.988549
v -0.594460 -1.000000 0.889671
v -0.594460 1.000000 0.889671
v -0.756603 -1.000000 0.756602
v -0.756603 1.000000 0.756602
v -0.889671 -1.000000 0.594459
v -0.889671 1.000000 0.594459
v -0.988550 -1.000000 0.409470
v -0.988550 1.000000 0.409470
v -1.049440 -1.000000 0.208745
v -1.049440 1.000000 0.208745
v -1.069998 -1.000000 -0.000001
v -1.069998 1.000000 -0.000001
v -1.049439 -1.000000 -0.208747
v -1.049439 1.000000 -0.208747
v -0.988549 -1.000000 -0.409471
v -0.988549 1.000000 -0.409471
v -0.889670 -1.000000 -0.594460
v -0.889670 1.000000 -0.594460
v -0.756602 -1.000000 -0.756603
v -0.756602 1.000000 -0.756603
v -0.594458 -1.000000 -0.889672
v -0.594458 1.000000 -0.889672
v -0.409469 -1.000000 -0.988550
v -0.409469 1.000000 -0.988550
v -0.208744 -1.000000 -1.049440
v -0.208744 1.000000 -1.049440
v 0.000000 -1.000000 -1.000000
v 0.000000 1.000000 -1.000000
v 0.195090 -1.000000 -0.980785
v 0.195090 1.000000 -0.980785
v 0.382683 -1.000000 -0.923880
v 0.382683 1.000000 -0.923880
v 0.555570 -1.000000 -0.831470
v 0.555570 1.000000 -0.831470
v 0.707107 -1.000000 -0.707107
v 0.707107 1.000000 -0.707107
v 0.831470 -1.000000 -0.555570
v 0.831470 1.000000 -0.555570
v 0.923880 -1.000000 -0.382683
v 0.923880 1.000000 -0.382683
v 0.980785 -1.000000 -0.195090
v 0.980785 1.000000 -0.195090
v 1.000000 -1.000000 -0.000000
v 1.000000 1.000000 -0.000000
v 0.980785 -1.000000 0.195090
v 0.980785 1.000000 0.195090
v 0.923880 -1.000000 0.382683
v 0.923880 1.000000 0.382683
v 0.831470 -1.000000 0.555570
v 0.831470 1.000000 0.555570
v 0.707107 -1.000000 0.707107
v 0.707107 1.000000 0.707107
v 0.555570 -1.000000 0.831470
v 0.555570 1.000000 0.831470
v 0.382683 -1.000000 0.923880
v 0.382683 1.000000 0.923880
v 0.195090 -1.000000 0.980785
v 0.195090 1.000000 0.980785
v -0.000000 -1.000000 1.000000
v -0.000000 1.000000 1.000000
v -0.195091 -1.000000 0.980785
v -0.195091 1.000000 0.980785
v -0.382684 -1.000000 0.923879
v -0.382684 1.000000 0.923879
v -0.555571 -1.000000 0.831469
v -0.555571 1.000000 0.831469
v -0.707107 -1.000000 0.707106
v -0.707107 1.000000 0.707106
v -0.831470 -1.000000 0.555570
v -0.831470 1.000000 0.555570
v -0.923880 -1.000000 0.382683
v -0.923880 1.000000 0.382683
v -0.980785 -1.000000 0.195089
v -0.980785 1.000000 0.195089
v -1.000000 -1.000000 -0.000001
v -1.000000 1.000000 -0.000001
v -0.980785 -1.000000 -0.195091
v -0.980785 1.000000 -0.195091
v -0.923879 -1.000000 -0.382684
v -0.923879 1.000000 -0.382684
v -0.831469 -1.000000 -0.555571
v -0.831469 1.000000 -0.555571
v -0.707106 -1.000000 -0.707108
v -0.707106 1.000000 -0.707108
v -0.555569 -1.000000 -0.831470
v -0.555569 1.000000 -0.831470
v -0.382682 -1.000000 -0.923880
v -0.382682 1.000000 -0.923880
v -0.195089 -1.000000 -0.980786
v -0.195089 1.000000 -0.980786
vt 1.000000 0.000000
vt 1.000000 1.000000
vt 0.968750 1.000000
vt 0.968750 0.000000
vt 0.937500 1.000000
vt 0.937500 0.000000
vt 0.906250 1.000000
vt 0.906250 0.000000
vt 0.875000 1.000000
vt 0.875000 0.000000
vt 0.843750 1.000000
vt 0.843750 0.000000
vt 0.812500 1.000000
vt 0.812500 0.000000
vt 0.781250 1.000000
vt 0.781250 0.000000
vt 0.750000 1.000000
vt 0.750000 0.000000
vt 0.718750 1.000000
vt 0.718750 0.000000
vt 0.687500 1.000000
vt 0.687500 0.000000
vt 0.656250 1.000000
vt 0.656250 0.000000
vt 0.625000 1.000000
vt 0.625000 0.000000
vt 0.593750 1.000000
vt 0.593750 0.000000
vt 0.562500 1.000000
vt 0.562500 0.000000
vt 0.531250 1.000000
vt 0.531250 0.000000
vt 0.500000 1.000000
vt 0.500000 0.000000
vt 0.468750 1.000000
vt 0.468750 0.000000
vt 0.437500 1.000000
vt 0.437500 0.000000
vt 0.406250 1.000000
vt 0.406250 0.000000
vt 0.375000 1.000000
vt 0.375000 0.000000
vt 0.343750 1.000000
vt 0.343750 0.000000
vt 0.312500 1.000000
vt 0.312500 0.000000
vt 0.281250 1.000000
vt 0.281250 0.000000
vt 0.250000 1.000000
vt 0.250000 0.000000
vt 0.218750 1.000000
vt 0.218750 0.000000
vt 0.187500 1.000000
vt 0.187500 0.000000
vt 0.156250 1.000000
vt 0.156250 0.000000
vt 0.125000 1.000000
vt 0.125000 0.000000
vt 0.093750 1.000000
vt 0.093750 0.000000
vt 0.062500 1.000000
vt 0.062500 0.000000
vt 0.031250 1.000000
vt 0.031250 0.000000
vt 0.000000 1.000000
vt 0.000000 0.000000
vt 1.000000 0.000000
vt 0.968750 0.000000
vt 0.968750 1.000000
vt 1.000000 1.000000
vt 0.937500 0.000000
vt 0.937500 1.000000
vt 0.906250 0.000000
vt 0.906250 1.000000
vt 0.875000 0.000000
vt 0.875000 1.000000
vt 0.843750 0.000000
vt 0.843750 1.000000
vt 0.812500 0.000000
vt 0.812500 1.000000
vt 0.781250 0.000000
vt 0.781250 1.000000
vt 0.750000 0.000000
vt 0.750000 1.000000
vt 0.718750 0.000000
vt 0.718750 1.000000
vt 0.687500 0.000000
vt 0.687500 1.000000
vt 0.656250 0.000000
vt 0.656250 1.000000
vt 0.625000 0.000000
vt 0.625000 1.000000
vt 0.593750 0.000000
vt 0.593750 1.000000
vt 0.562500 0.000000
vt 0.562500 1.000000
vt 0.531250 0.000000
vt 0.531250 1.000000
vt 0.500000 0.000000
vt 0.500000 1.000000
vt 0.468750 0.000000
vt 0.468750 1.000000
vt 0.437500 0.000000
vt 0.437500 1.000000
vt 0.406250 0.000000
vt 0.406250 1.000000
vt 0.375000 0.000000
vt 0.375000 1.000000
vt 0.343750 0.000000
vt 0.343750 1.000000
vt 0.312500 0.000000
vt 0.312500 1.000000
vt 0.281250 0.000000
vt 0.281250 1.000000
vt 0.250000 0.000000
vt 0.250000 1.000000
vt 0.218750 0.000000
vt 0.218750 1.000000
vt 0.187500 0.000000
vt 0.187500 1.000000
vt 0.156250 0.000000
vt 0.156250 1.000000
vt 0.125000 0.000000
vt 0.125000 1.000000
vt 0.093750 0.000000
vt 0.093750 1.000000
vt 0.062500 0.000000
vt 0.062500 1.000000
vt 0.031250 0.000000
vt 0.031250 1.000000
vt 0.000000 0.000000
vt 0.000000 1.000000
vn 0.0000 -0.6857 -0.7279
vn 0.0000 0.6857 -0.7279
vn 0.1420 0.6857 -0.7139
vn 0.1420 -0.6857 -0.7139
vn 0.2785 0.6857 -0.6725
vn 0.2785 -0.6857 -0.6725
vn 0.4044 0.6857 -0.6052
vn 0.4044 -0.6857 -0.6052
vn 0.5147 0.6857 -0.5147
vn 0.5147 -0.6857 -0.5147
vn 0.6052 0.6857 -0.4044
vn 0.6052 -0.6857 -0.4044
vn 0.6725 0.6857 -0.2785
vn 0.6725 -0.6857 -0.2785
vn 0.7139 0.6857 -0.1420
vn 0.7139 -0.6857 -0.1420
vn 0.7279 0.6857 0.0000
vn 0.7279 -0.6857 0.0000
vn 0.7139 0.6857 0.1420
vn 0.7139 -0.6857 0.1420
vn 0.6725 0.6857 0.2785
vn 0.6725 -0.6857 0.2785
vn 0.6052 0.6857 0.4044
vn 0.6052 -0.6857 0.4044
vn 0.5147 0.6857 0.5147
vn 0.5147 -0.6857 0.5147
vn 0.4044 0.6857 0.6052
vn 0.4044 -0.6857 0.6052
vn 0.2785 0.6857 0.6725
vn 0.2785 -0.6857 0.6725
vn 0.1420 0.6857 0.7139
vn 0.1420 -0.6857 0.7139
vn 0.0000 0.6857 0.7279
vn 0.0000 -0.6857 0.7279
vn -0.1420 0.6857 0.7139
vn -0.1420 -0.6857 0.7139
vn -0.2785 0.6857 0.6725
vn -0.2785 -0.6857 0.6725
vn -0.4044 0.6857 0.6052
vn -0.4044 -0.6857 0.6052
vn -0.5147 0.6857 0.5147
vn -0.5147 -0.6857 0.5147
vn -0.6052 0.6857 0.4044
vn -0.6052 -0.6857 0.4044
vn -0.6725 0.6857 0.2785
vn -0.6725 -0.6857 0.2785
vn -0.7139 0.6857 0.1420
vn -0.7139 -0.6857 0.1420
vn -0.7279 0.6857 0.0000
vn -0.7279 -0.6857 0.0000
vn -0.7139 0.6857 -0.1420
vn -0.7139 -0.6857 -0.1420
vn -0.6725 0.6857 -0.2785
vn -0.6725 -0.6857 -0.2785
vn -0.6052 0.6857 -0.4044
vn -0.6052 -0.6857 -0.4044
vn -0.5147 0.6857 -0.5147
vn -0.5147 -0.6857 -0.5147
vn -0.4044 0.6857 -0.6052
vn -0.4044 -0.6857 -0.6052
vn -0.2785 0.6857 -0.6725
vn -0.2785 -0.6857 -0.6725
vn -0.1420 0.6857 -0.7139
vn -0.1420 -0.6857 -0.7139
vn 0.0000 -0.7298 0.6836
vn -0.1333 -0.7298 0.6705
vn -0.1333 0.7298 0.6705
vn 0.0000 0.7298 0.6836
vn -0.2616 -0.7298 0.6316
vn -0.2616 0.7298 0.6316
vn -0.3798 -0.7298 0.5684
vn -0.3798 0.7298 0.5684
vn -0.4834 -0.7298 0.4834
vn -0.4834 0.7298 0.4834
vn -0.5684 -0.7298 0.3798
vn -0.5684 0.7298 0.3798
vn -0.6316 -0.7298 0.2616
vn -0.6316 0.7298 0.2616
vn -0.6705 -0.7298 0.1333
vn -0.6705 0.7298 0.1333
vn -0.6836 -0.7298 0.0000
vn -0.6836 0.7298 0.0000
vn -0.6705 -0.7298 -0.1333
vn -0.6705 0.7298 -0.1333
vn -0.6316 -0.7298 -0.2616
vn -0.6316 0.7298 -0.2616
vn -0.5684 -0.7298 -0.3798
vn -0.5684 0.7298 -0.3798
vn -0.4834 -0.7298 -0.4834
vn -0.4834 0.7298 -0.4834
vn -0.3798 -0.7298 -0.5684
vn -0.3798 0.7298 -0.5684
vn -0.2616 -0.7298 -0.6316
vn -0.2616 0.7298 -0.6316
vn -0.1333 -0.7298 -0.6705
vn -0.1333 0.7298 -0.6705
vn 0.0000 -0.7298 -0.6836
vn 0.0000 0.7298 -0.6836
vn 0.1333 -0.7298 -0.6705
vn 0.1333 0.7298 -0.6705
vn 0.2616 -0.7298 -0.6316
vn 0.2616 0.7298 -0.6316
vn 0.3798 -0.7298 -0.5684
vn 0.3798 0.7298 -0.5684
vn 0.4834 -0.7298 -0.4834
vn 0.4834 0.7298 -0.4834
vn 0.5684 -0.7298 -0.3798
vn 0.5684 0.7298 -0.3798
vn 0.6316 -0.7298 -0.2616
vn 0.6316 0.7298 -0.2616
vn 0.6705 -0.7298 -0.1333
vn 0.6705 0.7298 -0.1333
vn 0.6836 -0.7298 0.0000
vn 0.6836 0.7298 0.0000
vn 0.6705 -0.7298 0.1334
vn 0.6705 0.7298 0.1334
vn 0.6316 -0.7298 0.2616
vn 0.6316 0.7298 0.2616
vn 0.5684 -0.7298 0.3798
vn 0.5684 0.7298 0.3798
vn 0.4834 -0.7298 0.4834
vn 0.4834 0.7298 0.4834
vn 0.3798 -0.7298 0.5684
vn 0.3798 0.7298 0.5684
vn 0.2616 -0.7298 0.6316
vn 0.2616 0.7298 0.6316
vn 0.1333 -0.7298 0.6705
vn 0.1333 0.7298 0.6705
usemtl None
s 1
f 1/1/1 2/2/2 4/3/3 3/4/4
f 3/4/4 4/3/3 6/5/5 5/6/6
f 5/6/6 6/5/5 8/7/7 7/8/8
f 7/8/8 8/7/7 10/9/9 9/10/10
f 9/10/10 10/9/9 12/11/11 11/12/12
f 11/12/12 12/11/11 14/13/13 13/14/14
f 13/14/14 14/13/13 16/15/15 15/16/16
f 15/16/16 16/15/15 18/17/17 17/18/18
f 17/18/18 18/17/17 20/19/19 19/20/20
f 19/20/20 20/19/19 22/21/21 21/22/22
f 21/22/22 22/21/21 24/23/23 23/24/24
f 23/24/24 24/23/23 26/25/25 25/26/26
f 25/26/26 26/25/25 28/27/27 27/28/28
f 27/28/28 28/27/27 30/29/29 29/30/30
f 29/30/30 30/29/29 32/31/31 31/32/32
f 31/32/32 32/31/31 34/33/33 33/34/34
f 33/34/34 34/33/33 36/35/35 35/36/36
f 35/36/36 36/35/35 38/37/37 37/38/38
f 37/38/38 38/37/37 40/39/39 39/40/40
f 39/40/40 40/39/39 42/41/41 41/42/42
f 41/42/42 42/41/41 44/43/43 43/44/44
f 43/44/44 44/43/43 46/45/45 45/46/46
f 45/46/46 46/45/45 48/47/47 47/48/48
f 47/48/48 48/47/47 50/49/49 49/50/50
f 49/50/50 50/49/49 52/51/51 51/52/52
f 51/52/52 52/51/51 54/53/53 53/54/54
f 53/54/54 54/53/53 56/55/55 55/56/56
f 55/56/56 56/55/55 58/57/57 57/58/58
f 57/58/58 58/57/57 60/59/59 59/60/60
f 59/60/60 60/59/59 62/61/61 61/62/62
f 61/62/62 62/61/61 64/63/63 63/64/64
f 63/64/64 64/63/63 2/65/2 1/66/1
f 65/67/65 67/68/66 68/69/67 66/70/68
f 67/68/66 69/71/69 70/72/70 68/69/67
f 69/71/69 71/73/71 72/74/72 70/72/70
f 71/73/71 73/75/73 74/76/74 72/74/72
f 73/75/73 75/77/75 76/78/76 74/76/74
f 75/77/75 77/79/77 78/80/78 76/78/76
f 77/79/77 79/81/79 80/82/80 78/80/78
f 79/81/79 81/83/81 82/84/82 80/82/80
f 81/83/81 83/85/83 84/86/84 82/84/82
f 83/85/83 85/87/85 86/88/86 84/86/84
f 85/87/85 87/89/87 88/90/88 86/88/86
f 87/89/87 89/91/89 90/92/90 88/90/88
f 89/91/89 91/93/91 92/94/92 90/92/90
f 91/93/91 93/95/93 94/96/94 92/94/92
f 93/95/93 95/97/95 96/98/96 94/96/94
f 95/97/95 97/99/97 98/100/98 96/98/96
f 97/99/97 99/101/99 100/102/100 98/100/98
f 99/101/99 101/103/101 102/104/102 100/102/100
f 101/103/101 103/105/103 104/106/104 102/104/102
f 103/105/103 105/107/105 106/108/106 104/106/104
f 105/107/105 107/109/107 108/110/108 106/108/106
f 107/109/107 109/111/109 110/112/110 108/110/108
f 109/111/109 111/113/111 112/114/112 110/112/110
f 111/113/111 113/115/113 114/116/114 112/114/112
f 113/115/113 115/117/115 116/118/116 114/116/114
f 115/117/115 117/119/117 118/120/118 116/118/116
f 117/119/117 119/121/119 120/122/120 118/120/118
f 119/121/119 121/123/121 122/124/122 120/122/120
f 121/123/121 123/125/123 124/126/124 122/124/122
f 123/125/123 125/127/125 126/128/126 124/126/124
f 125/127/125 127/129/127 128/130/128 126/128/126
f 127/129/127 65/131/65 66/132/68 128/130/128
f 1/1/1 3/4/4 67/68/66 65/67/65
f 4/3/3 2/2/2 66/70/68 68/69/67
f 3/4/4 5/6/6 69/71/69 67/68/66
f 6/5/5 4/3/3 68/69/67 70/72/70
f 5/6/6 7/8/8 71/73/71 69/71/69
f 8/7/7 6/5/5 70/72/70 72/74/72
f 7/8/8 9/10/10 73/75/73 71/73/71
f 10/9/9 8/7/7 72/74/72 74/76/74
f 9/10/10 11/12/12 75/77/75 73/75/73
f 12/11/11 10/9/9 74/76/74 76/78/76
f 11/12/12 13/14/14 77/79/77 75/77/75
f 14/13/13 12/11/11 76/78/76 78/80/78
f 13/14/14 15/16/16 79/81/79 77/79/77
f 16/15/15 14/13/13 78/80/78 80/82/80
f 15/16/16 17/18/18 81/83/81 79/81/79
f 18/17/17 16/15/15 80/82/80 82/84/82
f 17/18/18 19/20/20 83/85/83 81/83/81
f 20/19/19 18/17/17 82/84/82 84/86/84
f 19/20/20 21/22/22 85/87/85 83/85/83
f 22/21/21 20/19/19 84/86/84 86/88/86
f 21/22/22 23/24/24 87/89/87 85/87/85
f 24/23/23 22/21/21 86/88/86 88/90/88
f 23/24/24 25/26/26 89/91/89 87/89/87
f 26/25/25 24/23/23 88/90/88 90/92/90
f 25/26/26 27/28/28 91/93/91 89/91/89
f 28/27/27 26/25/25 90/92/90 92/94/92
f 27/28/28 29/30/30 93/95/93 91/93/91
f 30/29/29 28/27/27 92/94/92 94/96/94
f 29/30/30 31/32/32 95/97/95 93/95/93
f 32/31/31 30/29/29 94/96/94 96/98/96
f 31/32/32 33/34/34 97/99/97 95/97/95
f 34/33/33 32/31/31 96/98/96 98/100/98
f 33/34/34 35/36/36 99/101/99 97/99/97
f 36/35/35 34/33/33 98/100/98 100/102/100
f 35/36/36 37/38/38 101/103/101 99/101/99
f 38/37/37 36/35/35 100/102/100 102/104/102
f 37/38/38 39/40/40 103/105/103 101/103/101
f 40/39/39 38/37/37 102/104/102 104/106/104
f 39/40/40 41/42/42 105/107/105 103/105/103
f 42/41/41 40/39/39 104/106/104 106/108/106
f 41/42/42 43/44/44 107/109/107 105/107/105
f 44/43/43 42/41/41 106/108/106 108/110/108
f 43/44/44 45/46/46 109/111/109 107/109/107
f 46/45/45 44/43/43 108/110/108 110/112/110
f 45/46/46 47/48/48 111/113/111 109/111/109
f 48/47/47 46/45/45 110/112/110 112/114/112
f 47/48/48 49/50/50 113/115/113 111/113/111
f 50/49/49 48/47/47 112/114/112 114/116/114
f 49/50/50 51/52/52 115/117/115 113/115/113
f 52/51/51 50/49/49 114/116/114 116/118/116
f 51/52/52 53/54/54 117/119/117 115/117/115
f 54/53/53 52/51/51 116/118/116 118/120/118
f 53/54/54 55/56/56 119/121/119 117/119/117
f 56/55/55 54/53/53 118/120/118 120/122/120
f 55/56/56 57/58/58 121/123/121 119/121/119
f 58/57/57 56/55/55 120/122/120 122/124/122
f 57/58/58 59/60/60 123/125/123 121/123/121
f 60/59/59 58/57/57 122/124/122 124/126/124
f 59/60/60 61/62/62 125/127/125 123/125/123
f 62/61/61 60/59/59 124/126/124 126/128/126
f 61/62/62 63/64/64 127/129/127 125/127/125
f 64/63/63 62/61/61 126/128/126 128/130/128
f 63/64/64 1/66/1 65/131/65 127/129/127
f 2/65/2 64/63/63 128/130/128 66/132/68
